{
  "accessors": [
    {
      "bufferView": 2,
      "componentType": 5126,
      "count": 918,
      "max": [
        0.6982370018959045,
        0.9280470013618469,
        3.4458460807800293
      ],
      "min": [
        -1.0657399892807007,
        -0.9280470013618469,
        0.24026800692081451
      ],
      "type": "VEC3"
    },
    {
      "bufferView": 2,
      "byteOffset": 11016,
      "componentType": 5126,
      "count": 918,
      "max": [
        0.9953238368034363,
        0.9995536208152771,
        0.9825100898742676
      ],
      "min": [
        -0.98557049036026,
        -0.9995536208152771,
        -0.9994444847106934
      ],
      "type": "VEC3"
    },
    {
      "bufferView": 1,
      "componentType": 5126,
      "count": 918,
      "max": [
        0.875,
        1.0
      ],
      "min": [
        0.125,
        0.0
      ],
      "type": "VEC2"
    },
    {
      "bufferView": 0,
      "componentType": 5125,
      "count": 918,
      "type": "SCALAR"
    },
    {
      "bufferView": 2,
      "byteOffset": 22032,
      "componentType": 5126,
      "count": 1312,
      "max": [
        0.01723100058734417,
        0.4258669912815094,
        3.023390054702759
      ],
      "min": [
        -1.266906976699829,
        -0.4258669912815094,
        -0.0005910000181756914
      ],
      "type": "VEC3"
    },
    {
      "bufferView": 2,
      "byteOffset": 37776,
      "componentType": 5126,
      "count": 1312,
      "max": [
        0.9855084419250488,
        0.9990440607070923,
        0.9883872866630554
      ],
      "min": [
        -0.998934268951416,
        -0.9990440607070923,
        -1.0
      ],
      "type": "VEC3"
    },
    {
      "bufferView": 1,
      "byteOffset": 7344,
      "componentType": 5126,
      "count": 1312,
      "max": [
        0.625,
        0.7133749723434448
      ],
      "min": [
        0.16462500393390656,
        0.0625
      ],
      "type": "VEC2"
    },
    {
      "bufferView": 0,
      "byteOffset": 3672,
      "componentType": 5125,
      "count": 1320,
      "type": "SCALAR"
    },
    {
      "bufferView": 2,
      "byteOffset": 53520,
      "componentType": 5126,
      "count": 186,
      "max": [
        0.6982370018959045,
        0.6538249850273132,
        2.6167991161346436
      ],
      "min": [
        -0.8408460021018982,
        -0.6538249850273132,
        0.24017000198364258
      ],
      "type": "VEC3"
    },
    {
      "bufferView": 2,
      "byteOffset": 55752,
      "componentType": 5126,
      "count": 186,
      "max": [
        0.27800747752189636,
        0.5872100591659546,
        0.30548781156539917
      ],
      "min": [
        -0.9887957572937012,
        -0.5872100591659546,
        -0.9931008219718933
      ],
      "type": "VEC3"
    },
    {
      "bufferView": 1,
      "byteOffset": 17840,
      "componentType": 5126,
      "count": 186,
      "max": [
        0.625,
        0.75
      ],
      "min": [
        0.125,
        0.0
      ],
      "type": "VEC2"
    },
    {
      "bufferView": 0,
      "byteOffset": 8952,
      "componentType": 5125,
      "count": 186,
      "type": "SCALAR"
    },
    {
      "bufferView": 2,
      "byteOffset": 57984,
      "componentType": 5126,
      "count": 186,
      "max": [
        -0.11485599726438522,
        0.5644950270652771,
        3.4164130687713623
      ],
      "min": [
        -0.7996209859848022,
        -0.5644950270652771,
        3.061737060546875
      ],
      "type": "VEC3"
    },
    {
      "bufferView": 2,
      "byteOffset": 60216,
      "componentType": 5126,
      "count": 186,
      "max": [
        0.8874074816703796,
        0.9629143476486206,
        0.597820520401001
      ],
      "min": [
        -0.8012274503707886,
        -0.9629143476486206,
        -0.6807209253311157
      ],
      "type": "VEC3"
    },
    {
      "bufferView": 1,
      "byteOffset": 19328,
      "componentType": 5126,
      "count": 186,
      "max": [
        0.625,
        0.0625
      ],
      "min": [
        0.625,
        0.0
      ],
      "type": "VEC2"
    },
    {
      "bufferView": 0,
      "byteOffset": 9696,
      "componentType": 5125,
      "count": 186,
      "type": "SCALAR"
    }
  ],
  "asset": {
    "extras": {
      "author": "Daringcuteseal (https://sketchfab.com/daringcuteseal)",
      "license": "SKETCHFAB Standard (https://sketchfab.com/licenses)",
      "source": "https://sketchfab.com/3d-models/low-poly-rockhopper-penguin-c663621855834fdd822773643ae029b6",
      "title": "Low Poly Rockhopper Penguin"
    },
    "generator": "Sketchfab-16.15.0",
    "version": "2.0"
  },
  "bufferViews": [
    {
      "buffer": 0,
      "byteLength": 10440,
      "name": "floatBufferViews",
      "target": 34963
    },
    {
      "buffer": 0,
      "byteLength": 20816,
      "byteOffset": 10440,
      "byteStride": 8,
      "name": "floatBufferViews",
      "target": 34962
    },
    {
      "buffer": 0,
      "byteLength": 62448,
      "byteOffset": 31256,
      "byteStride": 12,
      "name": "floatBufferViews",
      "target": 34962
    }
  ],
  "buffers": [
    {
      "byteLength": 93704,
      "uri": "scene.bin"
    }
  ],
  "materials": [
    {
      "doubleSided": true,
      "name": "Black.001",
      "pbrMetallicRoughness": {
        "baseColorFactor": [
          0.002594,
          0.003192,
          0.005605,
          1.0
        ],
        "metallicFactor": 0.0,
        "roughnessFactor": 0.9186711719151107
      }
    },
    {
      "doubleSided": true,
      "name": "Orange.001",
      "pbrMetallicRoughness": {
        "baseColorFactor": [
          0.8,
          0.187849,
          0.208268,
          1.0
        ],
        "metallicFactor": 0.0,
        "roughnessFactor": 0.835206337415541
      }
    },
    {
      "doubleSided": true,
      "name": "White",
      "pbrMetallicRoughness": {
        "baseColorFactor": [
          0.8,
          0.8,
          0.8,
          1.0
        ],
        "metallicFactor": 0.0,
        "roughnessFactor": 0.835206337415541
      }
    },
    {
      "doubleSided": true,
      "name": "Yellow",
      "pbrMetallicRoughness": {
        "baseColorFactor": [
          0.8,
          0.392424,
          0.119189,
          1.0
        ],
        "metallicFactor": 0.0,
        "roughnessFactor": 0.8792631798616791
      }
    }
  ],
  "meshes": [
    {
      "name": "Object_0",
      "primitives": [
        {
          "attributes": {
            "NORMAL": 1,
            "POSITION": 0,
            "TEXCOORD_0": 2
          },
          "indices": 3,
          "material": 0,
          "mode": 4
        }
      ]
    },
    {
      "name": "Object_1",
      "primitives": [
        {
          "attributes": {
            "NORMAL": 5,
            "POSITION": 4,
            "TEXCOORD_0": 6
          },
          "indices": 7,
          "material": 1,
          "mode": 4
        }
      ]
    },
    {
      "name": "Object_2",
      "primitives": [
        {
          "attributes": {
            "NORMAL": 9,
            "POSITION": 8,
            "TEXCOORD_0": 10
          },
          "indices": 11,
          "material": 2,
          "mode": 4
        }
      ]
    },
    {
      "name": "Object_3",
      "primitives": [
        {
          "attributes": {
            "NORMAL": 13,
            "POSITION": 12,
            "TEXCOORD_0": 14
          },
          "indices": 15,
          "material": 3,
          "mode": 4
        }
      ]
    }
  ],
  "nodes": [
    {
      "children": [
        1
      ],
      "matrix": [
        1.0,
        0.0,
        0.0,
        0.0,
        0.0,
        2.220446049250313e-16,
        -1.0,
        0.0,
        0.0,
        1.0,
        2.220446049250313e-16,
        0.0,
        0.0,
        0.0,
        0.0,
        1.0
      ],
      "name": "Sketchfab_model"
    },
    {
      "children": [
        2,
        3,
        4,
        5
      ],
      "name": "Low poly rockhopper penguin.obj.cleaner.materialmerger.gles"
    },
    {
      "mesh": 0,
      "name": "Object_2"
    },
    {
      "mesh": 1,
      "name": "Object_3"
    },
    {
      "mesh": 2,
      "name": "Object_4"
    },
    {
      "mesh": 3,
      "name": "Object_5"
    }
  ],
  "scene": 0,
  "scenes": [
    {
      "name": "Sketchfab_Scene",
      "nodes": [
        0
      ]
    }
  ]
}
